<svg xmlns="http://www.w3.org/2000/svg" xmlns:xlink="http://www.w3.org/1999/xlink" width="394.27" height="87.05" viewBox="0 0 394.27 87.05"><defs><style>.cls-1{fill:#511e43;}.cls-2{fill:#e23e56;}.cls-3{fill:#fff;}.cls-4{fill:url(#linear-gradient);}.cls-5{fill:#88304e;}</style><linearGradient id="linear-gradient" x1="11.84" y1="60.62" x2="74.85" y2="60.62" gradientUnits="userSpaceOnUse"><stop offset="0" stop-color="#e23e56"/><stop offset="1" stop-color="#88304e"/></linearGradient></defs><title>logo-lg</title><g id="Layer_2" data-name="Layer 2"><g id="Layer_1-2" data-name="Layer 1"><path class="cls-1" d="M115,8.22a1.08,1.08,0,0,1,1.2-1.2h13.27c4.59,0,6.92.49,8.89,1.48,4.09,2,6.85,6.21,6.85,11.86,0,7.06-4.09,12.35-9.88,13.62v.14a10,10,0,0,1,1.13,1.76L146.72,55c.42.85.07,1.41-.85,1.41h-1a1.42,1.42,0,0,1-1.41-.85l-11.29-21H118V55.22a1.08,1.08,0,0,1-1.2,1.2h-.64a1.08,1.08,0,0,1-1.2-1.2Zm16.44,23.5c6.49,0,10.59-4.66,10.59-11.36a10,10,0,0,0-5.79-9.53c-1.41-.64-3-1-6.92-1H118V31.72Z"/><path class="cls-1" d="M168.18,20.29c9.17,0,14.4,6.63,14.4,16.8a1.17,1.17,0,0,1-1.27,1.2H154.13c0,10.23,6.92,16.09,15.1,16.09a15.54,15.54,0,0,0,10-3.6,1,1,0,0,1,1.62.21l.42.56A1.08,1.08,0,0,1,181,53.1a18.83,18.83,0,0,1-11.71,4.16c-10,0-18.21-7.2-18.21-18.42C151,26.92,159.14,20.29,168.18,20.29Zm11.29,15.24C179.12,26.92,174,23,168.11,23c-6.49,0-12.49,4.23-13.76,12.49Z"/><path class="cls-1" d="M203.46,20.29c8.89,0,12.21,8,12.21,8h.14a14.81,14.81,0,0,1-.28-2.89V8.22a1.08,1.08,0,0,1,1.2-1.2h.56a1.08,1.08,0,0,1,1.2,1.2v47a1.08,1.08,0,0,1-1.2,1.2h-.56a1.08,1.08,0,0,1-1.2-1.2V52a11.43,11.43,0,0,1,.28-2.68h-.14a13.5,13.5,0,0,1-12.77,8c-9.46,0-15.24-7.55-15.24-18.49C187.65,27.56,194.22,20.29,203.46,20.29ZM203,54.37c6.49,0,12.56-4.59,12.56-15.67,0-7.83-4-15.53-12.28-15.53-6.92,0-12.56,5.72-12.56,15.6C190.76,48.3,195.84,54.37,203,54.37Z"/><path class="cls-1" d="M245.94,8.22a1.08,1.08,0,0,1,1.2-1.2h22.51a1.08,1.08,0,0,1,1.2,1.2v.42a1.08,1.08,0,0,1-1.2,1.2H249V30.45h17.71a1.08,1.08,0,0,1,1.2,1.2v.42a1.08,1.08,0,0,1-1.2,1.2H249V55.22a1.08,1.08,0,0,1-1.2,1.2h-.64a1.08,1.08,0,0,1-1.2-1.2Z"/><path class="cls-1" d="M276.64,11V8.22a1.08,1.08,0,0,1,1.2-1.2H279a1.08,1.08,0,0,1,1.2,1.2V11a1.08,1.08,0,0,1-1.2,1.2h-1.13A1.08,1.08,0,0,1,276.64,11Zm.28,11.36a1.08,1.08,0,0,1,1.2-1.2h.56a1.08,1.08,0,0,1,1.2,1.2V55.22a1.08,1.08,0,0,1-1.2,1.2h-.56a1.08,1.08,0,0,1-1.2-1.2Z"/><path class="cls-1" d="M290,22.33a1.08,1.08,0,0,1,1.2-1.2h.56a1.08,1.08,0,0,1,1.2,1.2v5a14.81,14.81,0,0,1-.28,2.89h.14a16.26,16.26,0,0,1,15-10c9.17,0,11.64,5.43,11.64,13.76V55.22a1.08,1.08,0,0,1-1.2,1.2h-.56a1.08,1.08,0,0,1-1.2-1.2V35.11c0-6.14-.78-11.93-8.68-11.93s-14.82,6.63-14.82,15.67V55.22a1.08,1.08,0,0,1-1.2,1.2h-.56a1.08,1.08,0,0,1-1.2-1.2Z"/><path class="cls-1" d="M344.67,20.29a17.86,17.86,0,0,1,11.86,4.23,1.1,1.1,0,0,1,.07,1.69l-.35.49a1.06,1.06,0,0,1-1.69.14,15.29,15.29,0,0,0-9.88-3.67c-8.26,0-15.1,6.14-15.1,15.67s6.85,15.53,15.1,15.53a16.06,16.06,0,0,0,10.87-4.09,1,1,0,0,1,1.62.14l.35.49a1.1,1.1,0,0,1-.28,1.62,18.51,18.51,0,0,1-12.56,4.73c-10,0-18.21-7.2-18.21-18.42S334.86,20.29,344.67,20.29Z"/><path class="cls-1" d="M364.85,8.22A1.08,1.08,0,0,1,366,7h.56a1.08,1.08,0,0,1,1.2,1.2V27.34a14.81,14.81,0,0,1-.28,2.89h.14a16.26,16.26,0,0,1,15-10c9.17,0,11.64,5.43,11.64,13.76V55.22a1.08,1.08,0,0,1-1.2,1.2h-.56a1.08,1.08,0,0,1-1.2-1.2V35.11c0-6.14-.78-11.93-8.68-11.93s-14.82,6.63-14.82,15.88V55.22a1.08,1.08,0,0,1-1.2,1.2H366a1.08,1.08,0,0,1-1.2-1.2Z"/><path class="cls-2" d="M115,66.75h2.73c2.23,0,3.55.73,3.55,2.79s-1.33,2.91-3.55,2.91h-2v4.29H115Zm2.55,5.11c2,0,3-.68,3-2.32s-1-2.2-3-2.2h-1.85v4.52Z"/><path class="cls-2" d="M125.47,69.28c1.73,0,2.79,1.23,2.79,3.37a3.29,3.29,0,0,1,0,.55H123c0,1.83,1.11,3.15,2.74,3.15a3.22,3.22,0,0,0,2-.65l.27.52a4.06,4.06,0,0,1-2.29.71c-1.86,0-3.36-1.42-3.36-3.8S123.85,69.28,125.47,69.28Zm2.15,3.4c0-1.86-.83-2.82-2.14-2.82s-2.35,1.08-2.5,2.82Z"/><path class="cls-2" d="M130.23,69.46h.58l.06,1.35h0A2.5,2.5,0,0,1,133,69.28a1.5,1.5,0,0,1,.73.15l-.15.61a1.59,1.59,0,0,0-.67-.12c-.65,0-1.42.5-2,1.86v5h-.67Z"/><path class="cls-2" d="M137.6,69.28a3,3,0,0,1,2.14.89l-.39.47a2.48,2.48,0,0,0-1.73-.77c-1.49,0-2.64,1.32-2.64,3.24s1,3.21,2.64,3.21a2.93,2.93,0,0,0,1.94-.83l.35.45a3.44,3.44,0,0,1-2.32,1c-1.88,0-3.3-1.39-3.3-3.8S135.82,69.28,137.6,69.28Z"/><path class="cls-2" d="M141.69,65.84h.67V70.6a3.57,3.57,0,0,1,2.52-1.32c1.5,0,2.2.91,2.2,2.79v4.67h-.67V72.16c0-1.55-.49-2.27-1.67-2.27-.86,0-1.49.45-2.38,1.36v5.49h-.67Z"/><path class="cls-2" d="M157.21,73.31h-4l-1.17,3.43h-.71l3.53-10h.7l3.52,10h-.74Zm-.2-.59-.64-1.86c-.39-1.18-.76-2.23-1.11-3.46h-.06c-.35,1.23-.7,2.27-1.11,3.46l-.64,1.86Z"/><path class="cls-2" d="M161.24,77.38V80h-.67V69.46h.58l.06.91h0a4.25,4.25,0,0,1,2.47-1.09c1.94,0,2.91,1.46,2.91,3.71,0,2.47-1.5,3.93-3.21,3.93a3.85,3.85,0,0,1-2.18-.89Zm2.15-1c1.47,0,2.53-1.36,2.53-3.33,0-1.79-.64-3.12-2.3-3.12a3.85,3.85,0,0,0-2.38,1.2v4.32A3.57,3.57,0,0,0,163.4,76.33Z"/><path class="cls-2" d="M169.49,77.38V80h-.67V69.46h.58l.06.91h0A4.25,4.25,0,0,1,172,69.28c1.94,0,2.91,1.46,2.91,3.71,0,2.47-1.5,3.93-3.21,3.93a3.85,3.85,0,0,1-2.18-.89Zm2.15-1c1.47,0,2.53-1.36,2.53-3.33,0-1.79-.64-3.12-2.3-3.12a3.85,3.85,0,0,0-2.38,1.2v4.32A3.57,3.57,0,0,0,171.64,76.33Z"/><path class="cls-2" d="M180.11,66.75h2.3c3.08,0,4.55,1.94,4.55,5s-1.47,5-4.53,5h-2.32Zm2.23,9.4c2.71,0,3.9-1.83,3.9-4.44s-1.18-4.37-3.9-4.37h-1.53v8.81Z"/><path class="cls-2" d="M191.72,69.28c1.73,0,2.79,1.23,2.79,3.37a3.3,3.3,0,0,1,0,.55h-5.24c0,1.83,1.11,3.15,2.74,3.15a3.22,3.22,0,0,0,2-.65l.27.52a4.06,4.06,0,0,1-2.29.71c-1.86,0-3.37-1.42-3.37-3.8S190.1,69.28,191.72,69.28Zm2.15,3.4c0-1.86-.83-2.82-2.14-2.82s-2.35,1.08-2.5,2.82Z"/><path class="cls-2" d="M195.45,69.46h.73L197.82,74c.23.7.5,1.42.73,2.09h.06c.24-.67.5-1.39.74-2.09L201,69.46h.68L199,76.74h-.79Z"/><path class="cls-2" d="M205.8,69.28c1.73,0,2.79,1.23,2.79,3.37a3.3,3.3,0,0,1,0,.55h-5.24c0,1.83,1.11,3.15,2.74,3.15a3.22,3.22,0,0,0,2-.65l.27.52a4.06,4.06,0,0,1-2.29.71c-1.86,0-3.37-1.42-3.37-3.8S204.18,69.28,205.8,69.28Zm2.15,3.4c0-1.86-.83-2.82-2.14-2.82s-2.35,1.08-2.5,2.82Z"/><path class="cls-2" d="M210.56,65.84h.67v10c0,.32.14.47.32.47a1.17,1.17,0,0,0,.27,0l.12.55a1.41,1.41,0,0,1-.49.08c-.59,0-.89-.36-.89-1.15Z"/><path class="cls-2" d="M216.81,69.28c1.76,0,3.27,1.39,3.27,3.83s-1.52,3.8-3.27,3.8-3.26-1.39-3.26-3.8S215.07,69.28,216.81,69.28Zm0,7c1.47,0,2.58-1.3,2.58-3.21s-1.11-3.24-2.58-3.24-2.56,1.32-2.56,3.24S215.34,76.33,216.81,76.33Z"/><path class="cls-2" d="M222.93,77.38V80h-.67V69.46h.58l.06.91h0a4.25,4.25,0,0,1,2.47-1.09c1.94,0,2.91,1.46,2.91,3.71,0,2.47-1.5,3.93-3.21,3.93a3.85,3.85,0,0,1-2.18-.89Zm2.15-1c1.47,0,2.53-1.36,2.53-3.33,0-1.79-.64-3.12-2.3-3.12a3.85,3.85,0,0,0-2.38,1.2v4.32A3.57,3.57,0,0,0,225.08,76.33Z"/><path class="cls-2" d="M230.51,69.46h.58l.06,1.12h0a3.33,3.33,0,0,1,2.29-1.3,1.89,1.89,0,0,1,2,1.49A3.65,3.65,0,0,1,238,69.28c1.46,0,2.18.91,2.18,2.79v4.67h-.68V72.16c0-1.55-.52-2.27-1.62-2.27a3.17,3.17,0,0,0-2.18,1.36v5.49H235V72.16c0-1.55-.52-2.27-1.64-2.27a3.23,3.23,0,0,0-2.18,1.36v5.49h-.67Z"/><path class="cls-2" d="M245.38,69.28c1.73,0,2.79,1.23,2.79,3.37a3.3,3.3,0,0,1,0,.55h-5.24c0,1.83,1.11,3.15,2.74,3.15a3.22,3.22,0,0,0,2-.65l.27.52a4.06,4.06,0,0,1-2.29.71c-1.86,0-3.37-1.42-3.37-3.8S243.76,69.28,245.38,69.28Zm2.15,3.4c0-1.86-.83-2.82-2.14-2.82s-2.35,1.08-2.5,2.82Z"/><path class="cls-2" d="M250.14,69.46h.58l.06,1.12h0a3.55,3.55,0,0,1,2.5-1.3c1.5,0,2.2.91,2.2,2.79v4.67h-.67V72.16c0-1.55-.49-2.27-1.67-2.27-.86,0-1.49.45-2.38,1.36v5.49h-.67Z"/><path class="cls-2" d="M258.37,70h-1.14v-.52l1.15-.06.09-2.11h.58v2.11h2.11V70h-2.11v4.74c0,.92.23,1.55,1.23,1.55a2.44,2.44,0,0,0,.91-.23l.18.55a4.07,4.07,0,0,1-1.18.27c-1.41,0-1.82-.89-1.82-2.2Z"/><path class="cls-1" d="M11.84,65.29h0A23.33,23.33,0,0,0,43.52,43.82q0-.15,0-.29h0A21.77,21.77,0,0,1,86.11,37.2l.49.1A43.53,43.53,0,1,0,2.88,59.13,23.36,23.36,0,0,0,11.84,65.29Z"/><path class="cls-2" d="M86.11,37.2A21.76,21.76,0,1,0,74.85,63.08a43.52,43.52,0,0,1-63,2.22h0a23.36,23.36,0,0,1-9-6.17,43.53,43.53,0,0,0,84-11.75q.17-1.91.17-3.86A21.76,21.76,0,0,0,86.11,37.2Z"/><circle class="cls-3" cx="68.64" cy="42.29" r="6.22"/><path class="cls-4" d="M20.21,66.84a23.26,23.26,0,0,1-8.37-1.55,43.52,43.52,0,0,0,63-2.22A21.77,21.77,0,0,1,43.52,43.52q0,.15,0,.29A23.32,23.32,0,0,1,20.21,66.84Z"/><path class="cls-5" d="M86.88,47.38a24.35,24.35,0,0,0,9.81-5A24.09,24.09,0,0,0,86.11,37.2,21.76,21.76,0,0,1,87,43.52Q87,45.47,86.88,47.38Z"/></g></g></svg>