<svg xmlns="http://www.w3.org/2000/svg" xmlns:xlink="http://www.w3.org/1999/xlink" width="66.65" height="60" viewBox="0 0 66.65 60"><defs><style>.cls-1,.cls-2,.cls-4{fill:#fff;}.cls-1{opacity:0.25;}.cls-3{fill:url(#linear-gradient);}.cls-4{opacity:0.6;}</style><linearGradient id="linear-gradient" x1="8.16" y1="41.79" x2="51.59" y2="41.79" gradientUnits="userSpaceOnUse"><stop offset="0" stop-color="#fff"/><stop offset="1" stop-color="#fff" stop-opacity="0.6"/></linearGradient></defs><title>logo-sm--reverse</title><g id="Layer_2" data-name="Layer 2"><g id="Layer_1-2" data-name="Layer 1"><path class="cls-1" d="M8.16,45h0A16.08,16.08,0,0,0,30,30.2q0-.1,0-.2h0a15,15,0,0,1,29.36-4.36l.34.07A30,30,0,1,0,2,40.75,16.1,16.1,0,0,0,8.16,45Z"/><polygon class="cls-2" points="8.16 45 8.16 45 8.16 45 8.16 45"/><path class="cls-2" d="M59.36,25.64a15,15,0,1,0-7.76,17.84A30,30,0,0,1,8.16,45,16.1,16.1,0,0,1,2,40.75a30,30,0,0,0,57.9-8.1Q60,31.34,60,30A15,15,0,0,0,59.36,25.64Zm-12,7.79a4.29,4.29,0,1,1,4.29-4.29A4.29,4.29,0,0,1,47.31,33.43Z"/><path class="cls-3" d="M13.93,46.07A16,16,0,0,1,8.16,45a30,30,0,0,0,43.44-1.53A15,15,0,0,1,30,30q0,.1,0,.2A16.07,16.07,0,0,1,13.93,46.07Z"/><path class="cls-4" d="M59.88,32.66a16.78,16.78,0,0,0,6.76-3.45,16.61,16.61,0,0,0-7.29-3.57A15,15,0,0,1,60,30Q60,31.34,59.88,32.66Z"/></g></g></svg>